<svg id="Layer_1" data-name="Layer 1" xmlns="http://www.w3.org/2000/svg" viewBox="0 0 2040.13 1192.32"><defs><style>.cls-1{fill:#0c3172;}.cls-2{fill:#c19669;}.cls-3{fill:#00d5ff;}.cls-4{fill:#c63053;}</style></defs><title>Vector File</title><path class="cls-1" d="M252.15,591.37a54.14,54.14,0,0,1-2.25,16.25,46,46,0,0,1-6.08,12.63A42.89,42.89,0,0,1,235,629.6a51.11,51.11,0,0,1-10.48,6.34,51.69,51.69,0,0,1-11,3.58A53.08,53.08,0,0,1,203,640.65H117.05V614.06H203a31.11,31.11,0,0,0,9.26-2.09,22.3,22.3,0,0,0,7.1-4.55,19.76,19.76,0,0,0,4.6-6.9,24.19,24.19,0,0,0,1.64-9.15V579.3a35.41,35.41,0,0,0-2.15-9.2,21.76,21.76,0,0,0-4.45-7.16,20.06,20.06,0,0,0-6.8-4.65,23.52,23.52,0,0,0-9.2-1.68H143.06c-3.54,0-6.24.92-8.08,2.76s-2.76,4.49-2.76,8V676.63H105.64V567.34q0-10.23,3.73-17.38a35.09,35.09,0,0,1,9.31-11.55A36.69,36.69,0,0,1,130.79,532a41.65,41.65,0,0,1,12.07-2H203a52.86,52.86,0,0,1,16.16,2.3,46.73,46.73,0,0,1,12.62,6.14,41.75,41.75,0,0,1,9.31,8.84,55.75,55.75,0,0,1,6.34,10.48,51.09,51.09,0,0,1,3.62,11,53.16,53.16,0,0,1,1.13,10.48Z"/><path class="cls-1" d="M408.39,676.63h-95.9a42.41,42.41,0,0,1-12.06-1.94,35.26,35.26,0,0,1-12.11-6.39A35.71,35.71,0,0,1,279,656.75q-3.74-7.11-3.73-17.43v-95.9a13.49,13.49,0,0,1,1-5.22,13.7,13.7,0,0,1,2.81-4.29,12.59,12.59,0,0,1,4.25-2.86,13.66,13.66,0,0,1,5.31-1H408.39v26.59H301.86v82.71q0,5.2,2.76,8t8.08,2.76h95.69Z"/><rect class="cls-1" x="312.49" y="589.94" width="83.94" height="26.79"/><path class="cls-1" d="M581.61,579.3a54.16,54.16,0,0,1-2.25,16.26,45.77,45.77,0,0,1-6.08,12.62,43,43,0,0,1-8.85,9.36A53.21,53.21,0,0,1,554,623.93a50.41,50.41,0,0,1-11,3.63,53,53,0,0,1-10.48,1.12l55.52,48h-41.1l-55.42-48H472.32V602.1h60.11a30.81,30.81,0,0,0,9.15-2.09,22.81,22.81,0,0,0,7.16-4.55,19.47,19.47,0,0,0,4.65-6.9A24.55,24.55,0,0,0,555,579.3V562.54a8.11,8.11,0,0,0-.57-3.43,4.13,4.13,0,0,0-1.43-1.74,4.22,4.22,0,0,0-1.84-.66,16.64,16.64,0,0,0-1.79-.1H461.68v120H435.1V543.42a13.49,13.49,0,0,1,1-5.22,13.7,13.7,0,0,1,2.81-4.29,12.59,12.59,0,0,1,4.25-2.86,13.69,13.69,0,0,1,5.31-1H549.4a32.11,32.11,0,0,1,15,3.22,30.64,30.64,0,0,1,10,8.08,31.21,31.21,0,0,1,5.52,10.48,36.59,36.59,0,0,1,1.69,10.53Z"/><path class="cls-1" d="M750.22,633.49a46.72,46.72,0,0,1-2,14.16A42,42,0,0,1,743,658.74a35,35,0,0,1-7.66,8.18,47.05,47.05,0,0,1-9.1,5.52,45.81,45.81,0,0,1-9.56,3.17,44.64,44.64,0,0,1-9.15,1H604.94V650.05H707.49q7.66,0,11.91-4.5t4.24-12.06a19.47,19.47,0,0,0-1.12-6.75,15.74,15.74,0,0,0-3.22-5.32,14.38,14.38,0,0,0-5.12-3.47,17.56,17.56,0,0,0-6.69-1.23H646.35a47.46,47.46,0,0,1-13.9-2.3A41.59,41.59,0,0,1,618.59,607,40.48,40.48,0,0,1,608,593.62q-4.25-8.28-4.24-20.25T608,553.18a40.78,40.78,0,0,1,24.49-20.86,47.46,47.46,0,0,1,13.9-2.3h90.48v26.59H646.35q-7.56,0-11.81,4.6t-4.24,12.16q0,7.67,4.24,12.12t11.81,4.45h61.34a46.31,46.31,0,0,1,27.71,10.17,38.5,38.5,0,0,1,7.62,8.23,40.29,40.29,0,0,1,5.26,11A47.56,47.56,0,0,1,750.22,633.49Z"/><path class="cls-1" d="M1399.07,663.81a13.24,13.24,0,0,1-1.07,5.32,13.86,13.86,0,0,1-2.87,4.24,12.93,12.93,0,0,1-4.24,2.81,13.44,13.44,0,0,1-5.21,1,14.15,14.15,0,0,1-5-.92,11.56,11.56,0,0,1-4.45-3L1279.14,571.9V675.16h-26.58V539.9a12.72,12.72,0,0,1,2.3-7.41,14.24,14.24,0,0,1,5.88-5,13.52,13.52,0,0,1,7.77-.77,12.67,12.67,0,0,1,6.85,3.73l97.13,101.32V528.55h26.58Z"/><path class="cls-1" d="M1457.78,675.16H1431.2V528.55h26.58Z"/><path class="cls-1" d="M1621.18,675.16h-95.9a39.51,39.51,0,0,1-7.92-.87,40.6,40.6,0,0,1-8.39-2.71,39,39,0,0,1-7.92-4.75,32.69,32.69,0,0,1-6.7-7.06,35,35,0,0,1-4.65-9.61,40.51,40.51,0,0,1-1.74-12.32v-72a39.6,39.6,0,0,1,.87-7.93,40.71,40.71,0,0,1,2.71-8.38,37.52,37.52,0,0,1,4.81-7.92,32.88,32.88,0,0,1,7.1-6.7,35.27,35.27,0,0,1,9.56-4.65,40,40,0,0,1,12.27-1.74h95.9v26.58h-95.9c-3.48,0-6.13.92-8,2.76s-2.77,4.57-2.77,8.18v71.77q0,5.11,2.82,7.93t7.92,2.81h95.9Z"/><path class="cls-1" d="M1782,675.16H1660.77a13.74,13.74,0,0,1-5.32-1,12.77,12.77,0,0,1-7-7.06,13.65,13.65,0,0,1-1-5.31V528.55H1674v120H1782Z"/><path class="cls-1" d="M1934.49,675.16h-95.9a42.83,42.83,0,0,1-12.07-1.94,35.28,35.28,0,0,1-21.42-18q-3.74-7.1-3.73-17.43v-95.9a13.54,13.54,0,0,1,3.84-9.5,12.48,12.48,0,0,1,4.24-2.87,13.69,13.69,0,0,1,5.31-1h119.73v26.58H1828v82.71q0,5.22,2.76,8c1.84,1.84,4.54,2.76,8.08,2.76h95.7Z"/><rect class="cls-1" x="1838.59" y="588.46" width="83.94" height="26.79"/><path class="cls-2" d="M1068.79,554a84.08,84.08,0,0,0-24.47-28.79,76.92,76.92,0,0,0-58.26-14.59c-29.26,4.62-52.62,25.41-63.27,52.58a81.75,81.75,0,0,1,7.1-12.88c12.16-20.35,32.2-35.21,56.28-39a75.93,75.93,0,0,1,57.74,14.45,83.41,83.41,0,0,1,24.82,29.67c1.14,2,2.21,4,3.18,6.1,0-.13-.09-.25-.13-.37Q1070.42,557.5,1068.79,554Z"/><path class="cls-2" d="M926.66,638.33a84,84,0,0,0,24.47,28.79,76.74,76.74,0,0,0,58.26,14.59c29.26-4.62,52.63-25.41,63.28-52.59a82.72,82.72,0,0,1-7.11,12.89c-12.16,20.34-32.2,35.21-56.28,39a76.18,76.18,0,0,1-57.74-14.45,83.41,83.41,0,0,1-24.82-29.67c-1.14-2-2.21-4-3.18-6.1,0,.12.09.23.13.35C924.57,633.59,925.58,636,926.66,638.33Z"/><path class="cls-3" d="M975.92,675.18q-2.42-.72-4.79-1.59c-1.66-.57-3.29-1.18-4.9-1.85A77,77,0,0,0,975.92,675.18Z"/><path class="cls-2" d="M929.31,543.85A90,90,0,0,0,916.86,577c-.34,3.49-.52,7-.56,10.57.09-.82.2-1.63.31-2.44a89.84,89.84,0,0,1,5-23.78A98.15,98.15,0,0,1,929.31,543.85Z"/><path class="cls-2" d="M985.18,506a79.6,79.6,0,0,0-47.32,26.4,90.29,90.29,0,0,0-7.67,11.35,84.31,84.31,0,0,1,22.19-23.54,78.17,78.17,0,0,1,33.68-14,76.26,76.26,0,0,1,33.33,2.12A76.37,76.37,0,0,0,985.18,506Z"/><path class="cls-3" d="M1074.58,566.27c-.08-.22-.17-.43-.25-.65.13.4.26.8.4,1.2Z"/><path class="cls-3" d="M1059.79,536.92c-.38-.49-.76-1-1.15-1.45.69.92,1.35,1.86,2,2.81C1060.37,537.82,1060.08,537.36,1059.79,536.92Z"/><path class="cls-1" d="M1054.24,531.2a91.26,91.26,0,0,0-6.37-6.66c-1.29-1.08-2.6-2.15-4-3.16a78.16,78.16,0,0,0-25.45-12.56A78.07,78.07,0,0,1,1043,521.14,82.63,82.63,0,0,1,1054.24,531.2Z"/><path class="cls-3" d="M947.73,669.08a82.78,82.78,0,0,1-6.92-6.44h0A82.78,82.78,0,0,0,947.73,669.08Z"/><path class="cls-3" d="M926.56,641.18c.18.36.34.74.53,1.1-.19-.36-.35-.73-.53-1.1Z"/><path class="cls-3" d="M925,638h0c.48,1.08,1,2.15,1.52,3.21h0C926,640.11,925.51,639,925,638Z"/><path class="cls-3" d="M1077.2,618.26q.81-4.14,1.25-8.4Q1078,614.12,1077.2,618.26Z"/><path class="cls-3" d="M1013.51,685.56a78.56,78.56,0,0,0,8-2.15A78.56,78.56,0,0,1,1013.51,685.56Z"/><path class="cls-2" d="M1055.11,661.73a81.65,81.65,0,0,1-22.38,17A81.65,81.65,0,0,0,1055.11,661.73Z"/><path class="cls-3" d="M1055.11,661.73a85.12,85.12,0,0,0,7.65-9.45A85.12,85.12,0,0,1,1055.11,661.73Z"/><path class="cls-3" d="M997.39,687.27a77.11,77.11,0,0,0,12-.94A77.11,77.11,0,0,1,997.39,687.27Z"/><path class="cls-3" d="M1077.2,618.26c-.36,1.8-.79,3.58-1.25,5.35h0C1076.41,621.84,1076.84,620.06,1077.2,618.26Z"/><path class="cls-3" d="M1078.47,609.64c0,.08,0,.15,0,.22s0-.14,0-.22Z"/><path class="cls-3" d="M920,626.07c.7,2.51,1.52,5,2.43,7.38h0c-.91-2.41-1.73-4.87-2.43-7.38Z"/><path class="cls-3" d="M1065.82,647.55c-1,1.61-2,3.2-3.06,4.73,1.07-1.53,2.08-3.12,3.06-4.73Z"/><path class="cls-3" d="M939,659.71l.25.27h0Z"/><path class="cls-3" d="M927.09,642.28c.24.46.5.9.74,1.36h0C927.59,643.18,927.33,642.74,927.09,642.28Z"/><path class="cls-3" d="M1005,514.61l.65.07h0Z"/><path class="cls-3" d="M1009,515.08h0Z"/><path class="cls-3" d="M936.7,657c.75.93,1.52,1.85,2.32,2.75-.8-.9-1.57-1.82-2.32-2.75Z"/><path class="cls-2" d="M999.41,690a70.91,70.91,0,0,0,26.11-5C1051,674.94,1069,651.44,1076,623.61h0c-.24.94-.48,1.88-.76,2.8-.79,2.67-1.7,5.3-2.72,7.86s-2.16,5.07-3.4,7.51c-.63,1.22-1.28,2.42-2,3.61-.42.73-.86,1.44-1.3,2.16h0c-9.21,16.62-23.13,29.88-40.57,36.77a70.68,70.68,0,0,1-57-2.23,78.51,78.51,0,0,1-8.4-4.69,79.37,79.37,0,0,1-8.74-5.66c-.78-.57-1.52-1.18-2.27-1.78A82.09,82.09,0,0,0,968,682.75,72.9,72.9,0,0,0,999.41,690Z"/><path class="cls-1" d="M926.66,638.33c-1.08-2.35-2.09-4.74-3-7.19,1,2.64,2,5.26,3.13,7.85.28.62.56,1.23.85,1.84.36.78.73,1.57,1.11,2.35.66,1.35,1.35,2.69,2,4l.51.93c.3.56.62,1.1.93,1.66q1.23,2.16,2.54,4.24c1.43,2,2.91,4,4.48,5.94h0c1.8,2,3.7,3.94,5.69,5.77,1,1,2.12,1.89,3.22,2.79.46.39,1,.74,1.42,1.12A93.88,93.88,0,0,1,926.66,638.33Z"/><path class="cls-3" d="M918.11,575.1c-.1.59-.21,1.19-.3,1.78C917.91,576.29,918,575.69,918.11,575.1Z"/><path class="cls-3" d="M1074.6,625.91l-.12.43Z"/><path class="cls-2" d="M969.93,507.32c-17.4,6.88-31.33,20-40.62,36.53a98.15,98.15,0,0,0-7.69,17.52,101.33,101.33,0,0,0-3.2,12.18,90.33,90.33,0,0,1,9.74-26.06c.65-1.26,1.33-2.51,2-3.75a90.29,90.29,0,0,1,7.67-11.35A77.94,77.94,0,0,1,970.2,508,70.27,70.27,0,0,1,996,503.05a72,72,0,0,1,31.14,7.18,79.47,79.47,0,0,1,11.69,6.89c1.85,1.16,3.68,2.38,5.45,3.7s3.16,2.47,4.67,3.77a82.48,82.48,0,0,0-21.49-15A71.35,71.35,0,0,0,969.93,507.32Z"/><path class="cls-3" d="M1075,624.32q.66-2.45,1.2-4.94c-.07.23-.13.47-.21.7C1075.73,621.51,1075.4,622.92,1075,624.32Z"/><path class="cls-3" d="M917.38,579.68c-.09.63-.16,1.26-.24,1.9C917.21,580.94,917.29,580.31,917.38,579.68Z"/><path class="cls-3" d="M919.8,570.54c0-.09.05-.19.07-.28C919.85,570.35,919.82,570.45,919.8,570.54Z"/><path class="cls-1" d="M1054.24,531.2A96.46,96.46,0,0,1,1068.79,554q1.62,3.51,3,7.17c-1-2.63-2-5.25-3.13-7.84-.27-.59-.54-1.17-.82-1.76-.37-.81-.75-1.63-1.14-2.44q-1-2-2-4l-.53-1c-.29-.53-.59-1-.89-1.58-.83-1.46-1.69-2.9-2.57-4.3-.67-.95-1.33-1.89-2-2.81a83,83,0,0,0-10.77-10.93A91.26,91.26,0,0,1,1054.24,531.2Z"/><path class="cls-3" d="M934.79,654q-1.31-2.09-2.54-4.24c1.18,2.11,2.41,4.2,3.71,6.25l.74.91h0C936.05,656,935.41,655,934.79,654Z"/><path class="cls-2" d="M986.63,695.14a68.53,68.53,0,0,0,17.06,2.18A66.82,66.82,0,0,0,1042,685.16c26.87-18.64,40.38-54.6,37.55-91.36,0,.78.06,1.57.06,2.36a83.77,83.77,0,0,1-.44,8.57c-.36,32.57-13.61,63.16-37.61,79.81a65.89,65.89,0,0,1-54.72,9.86c-17.55-4.51-33.61-15.73-46-31.76h0c-.53-.54-1-1.1-1.56-1.65.83,1.18,1.68,2.36,2.54,3.52l.71.94c.39.51.79,1,1.19,1.52q1.89,2.38,3.86,4.64C958.79,683.24,972.21,691.43,986.63,695.14Z"/><path class="cls-2" d="M1008.82,497.18a66.64,66.64,0,0,0-55.35,10c-26.87,18.64-40.38,54.6-37.55,91.36,0-.78-.06-1.57-.06-2.36a83.77,83.77,0,0,1,.44-8.57c0-3.55.22-7.08.56-10.57,2.81-28.51,15.67-54.41,37-69.24a65.89,65.89,0,0,1,54.72-9.86c18,4.63,34.49,16.35,47,33.08.39.43.79.84,1.18,1.27-.14-.21-.27-.42-.42-.62q-1.35-1.95-2.77-3.84l-.69-.92c-.4-.53-.81-1-1.22-1.56-1.25-1.59-2.53-3.12-3.83-4.61C1036.66,509.08,1023.24,500.89,1008.82,497.18Z"/><path class="cls-3" d="M1064.12,544.16l.53,1Z"/><path class="cls-3" d="M927.65,640.83c.37.78.73,1.57,1.11,2.35C928.38,642.4,928,641.61,927.65,640.83Z"/><path class="cls-3" d="M1066.69,549.12c.39.81.77,1.63,1.14,2.44C1067.45,550.75,1067.08,549.93,1066.69,549.12Z"/><path class="cls-3" d="M926.8,639c-1.15-2.59-2.18-5.21-3.13-7.85,0-.12-.09-.23-.13-.35-.22-.47-.44-.95-.65-1.43Q924.66,634.24,926.8,639Z"/><path class="cls-3" d="M930.81,647.21l.51.93Z"/><path class="cls-1" d="M1071.78,561.16c0,.12.09.24.13.37.22.47.44,1,.65,1.44q-1.77-4.89-3.91-9.65C1069.79,555.91,1070.82,558.53,1071.78,561.16Z"/><path class="cls-3" d="M1063.23,542.58c-.94-1.69-1.93-3.37-3-5-.17-.22-.32-.43-.49-.64.29.44.58.9.87,1.36C1061.54,539.68,1062.4,541.12,1063.23,542.58Z"/><path class="cls-2" d="M989.33,488.24c-19.72-1.16-38.2,6.71-52.05,22.16C914.74,535.55,908.22,576,917.5,614.26c0-.27-.09-.54-.13-.81q-.29-2.15-.48-4.29c-.25-1.57-.46-3.15-.62-4.74-6-35,1.12-70.64,21.6-93.49,12.8-14.28,29.6-22,47.65-22,1.25,0,2.5,0,3.76.11,21.09,1.24,41.93,12.63,58.63,31.69,1.3,1.49,2.58,3,3.83,4.61-1.7-2.19-3.45-4.34-5.28-6.42-.47-.53-1-1.06-1.43-1.58-.67-.74-1.34-1.48-2-2.2-.86-.91-1.75-1.81-2.64-2.7-.5-.5-1-1-1.5-1.51l-.4-.37c-2-1.93-4-3.74-6.11-5.47C1019.05,495,1004.25,489.12,989.33,488.24Z"/><path class="cls-2" d="M1009.93,704.19c18.28,0,35.29-7.82,48.24-22.27,22.62-25.24,29.11-65.93,19.67-104.28.07.49.17,1,.24,1.47.16,1.22.29,2.43.4,3.65.28,1.69.53,3.41.7,5.14,6,35-1.12,70.64-21.6,93.49-13.68,15.27-31.94,23-51.41,21.9-21.09-1.24-41.92-12.63-58.62-31.68q-2-2.25-3.86-4.64c1.71,2.19,3.46,4.35,5.29,6.44.48.54,1,1.07,1.46,1.61.66.72,1.32,1.45,2,2.17,1.14,1.19,2.29,2.37,3.45,3.52l.86.84c.47.46,1,.9,1.43,1.35q2.3,2.15,4.64,4.13c13.39,10.18,28.29,16.16,43.32,17.05C1007.4,704.15,1008.67,704.19,1009.93,704.19Z"/><path class="cls-1" d="M1074.33,565.62a161.3,161.3,0,0,0-13.81-27.75l-.24-.31c1,1.65,2,3.33,3,5,.3.53.6,1,.89,1.58l.53,1q1,2,2,4c.39.81.76,1.63,1.14,2.44.28.59.55,1.17.82,1.76q2.13,4.75,3.91,9.65a80.52,80.52,0,0,1,3.87,10.66c-.38-1.89-.81-3.74-1.29-5.58-.14-.41-.28-.82-.41-1.23S1074.46,566,1074.33,565.62Z"/><path class="cls-3" d="M942.5,665.45l-.71-.94Z"/><path class="cls-1" d="M932.25,649.8c-.31-.56-.63-1.1-.93-1.66l-.51-.93c-.7-1.34-1.39-2.68-2-4-.38-.78-.74-1.57-1.11-2.35-.29-.61-.57-1.22-.85-1.84q-2.14-4.75-3.91-9.63A81.38,81.38,0,0,1,918.83,618c.34,1.81.75,3.6,1.19,5.37.35,1.12.73,2.22,1.1,3.33a161.43,161.43,0,0,0,14.63,29.06l.21.28C934.66,654,933.43,651.91,932.25,649.8Z"/><path class="cls-3" d="M1053,526.89l.69.92Z"/><path class="cls-3" d="M1056.89,532.32l-.47-.67c.15.2.28.41.42.62Z"/><path class="cls-2" d="M1017.48,710.2a64.23,64.23,0,0,0,8.22-.53c20-2.62,36.93-14.89,47.75-34.56,16.53-30.06,16.07-72,1.74-109.54q1.11,3.82,1.9,7.8c11.58,35.3,11,73.47-4.37,101.34-10.68,19.43-27.42,31.56-47.13,34.14-20.69,2.71-43-5.17-62.78-21.82q-2.34-2-4.64-4.13c2.12,2,4.27,4,6.48,5.83l1.64,1.33c.82.67,1.64,1.33,2.48,2q2,1.55,4,3l1.05.76c.44.32.9.62,1.35.93q2.58,1.77,5.18,3.36C992.54,706.7,1005.19,710.2,1017.48,710.2Z"/><path class="cls-2" d="M969.75,482.65c-20,2.62-36.93,14.89-47.74,34.56-16.44,29.88-16.1,71.49-2,108.86h0c-.36-1.27-.7-2.55-1-3.84s-.55-2.5-.79-3.76c-11.42-35.17-10.74-73.11,4.52-100.86,10.68-19.43,27.42-31.56,47.13-34.14A62.63,62.63,0,0,1,978,483c18.23,0,37.27,7.78,54.39,22.13,2.06,1.73,4.1,3.54,6.11,5.47q-3.73-3.63-7.67-7l-1.65-1.34c-.82-.66-1.63-1.33-2.46-2q-2.1-1.62-4.23-3.17-3.69-2.64-7.43-4.92C1000.12,484.11,984.53,480.71,969.75,482.65Z"/><path class="cls-1" d="M1060.52,537.87a161.3,161.3,0,0,1,13.81,27.75c.08.22.17.43.25.65l.27.67A86.18,86.18,0,0,0,1060.52,537.87Z"/><path class="cls-3" d="M956.74,681.55l-.86-.84Z"/><path class="cls-3" d="M1038.87,510.92c.51.49,1,1,1.5,1.51C1039.87,511.93,1039.38,511.42,1038.87,510.92Z"/><path class="cls-3" d="M952.43,677.19c-.67-.72-1.33-1.45-2-2.17C951.1,675.74,951.76,676.47,952.43,677.19Z"/><path class="cls-3" d="M1043,515.13c.68.72,1.35,1.46,2,2.2C1044.36,516.59,1043.69,515.85,1043,515.13Z"/><path class="cls-1" d="M921.12,626.71c-.25-.65-.5-1.3-.74-2,.13.52.25,1,.4,1.55A88.47,88.47,0,0,0,925,638h0c.5,1.07,1,2.15,1.52,3.21h0c.41.83.85,1.64,1.27,2.46h0l.66,1.21c.53.92,1.07,1.85,1.62,2.76a83.32,83.32,0,0,0,5.64,8.16A161.43,161.43,0,0,1,921.12,626.71Z"/><path class="cls-1" d="M943.69,667c-.4-.51-.8-1-1.19-1.52l-.71-.94c-.86-1.16-1.71-2.34-2.54-3.52-.5-.55-1-1.11-1.48-1.67A170.59,170.59,0,0,0,949,673.41C947.15,671.32,945.4,669.16,943.69,667Z"/><path class="cls-1" d="M1051.74,525.33c.41.52.82,1,1.22,1.56l.69.92q1.42,1.89,2.77,3.84l.47.67c.64.72,1.25,1.46,1.86,2.2a165.45,165.45,0,0,0-12.29-15.61C1048.29,521,1050,523.14,1051.74,525.33Z"/><path class="cls-1" d="M1025.81,715.05A61.92,61.92,0,0,0,1045,712.1c20.08-6.53,35-23.37,42.16-47.42,12.15-41.14-1.12-94.55-30.27-134.23a181.34,181.34,0,0,0-26.07-26.86q3.95,3.33,7.67,7l.4.37c.51.5,1,1,1.5,1.51.89.89,1.78,1.79,2.64,2.7.68.72,1.35,1.46,2,2.2.48.52,1,1,1.43,1.58a165.45,165.45,0,0,1,12.29,15.61,85.39,85.39,0,0,1,13.93,23.68c17,34.61,23.1,74.18,13.63,106.23-7,23.78-21.8,40.41-41.6,46.85-19.49,6.33-42.41,2.23-64.36-11.19q-2.6-1.59-5.18-3.36a139.76,139.76,0,0,0,12.65,7.88c.63.35,1.27.7,1.9,1l.3.16,1.83.94,1.61.81,0,0c1.87.91,3.73,1.75,5.59,2.54A79,79,0,0,0,1025.81,715.05Z"/><path class="cls-3" d="M968.77,692c-.84-.65-1.66-1.31-2.48-2C967.11,690.72,967.93,691.4,968.77,692Z"/><path class="cls-3" d="M928.49,644.85q.78,1.39,1.62,2.76C929.56,646.7,929,645.77,928.49,644.85Z"/><path class="cls-3" d="M1026.69,500.28c.83.64,1.64,1.31,2.46,2C1028.33,501.59,1027.51,500.92,1026.69,500.28Z"/><path class="cls-3" d="M973.82,695.8l-1.05-.76C973.11,695.3,973.47,695.55,973.82,695.8Z"/><path class="cls-2" d="M958.17,682.9c-.48-.45-1-.89-1.43-1.35l-.86-.84c-1.16-1.15-2.31-2.33-3.45-3.52-.67-.72-1.33-1.45-2-2.17-.49-.54-1-1.07-1.46-1.61a170.59,170.59,0,0,1-11.21-14.09c-1.61-1.87-3.16-3.79-4.61-5.79a85.85,85.85,0,0,1-8.56-14.8c-.79-1.73-1.49-3.49-2.17-5.28h0c-16.77-34.46-22.7-73.72-13.29-105.56,7-23.78,21.8-40.41,41.6-46.85a61.12,61.12,0,0,1,18.9-2.91c14.62,0,30.24,4.81,45.39,14.06q3.74,2.28,7.43,4.92a143,143,0,0,0-14.82-9.4c-.57-.31-1.15-.63-1.73-.93l-.74-.4-1.64-.84c-2.47-1.24-4.94-2.38-7.39-3.42-15.9-5.68-31.65-6.45-45.67-1.9-20.08,6.53-35.05,23.37-42.16,47.42-12.15,41.14,1.12,94.55,30.27,134.23a181.34,181.34,0,0,0,26.07,26.86C962.44,686.86,960.29,684.91,958.17,682.9Z"/><path class="cls-2" d="M931.67,480.88c-19.94,10.71-32.31,32.27-34.81,60.72-4.09,46.51,19.25,100.88,55.57,137.17a178,178,0,0,0,35.39,25.84,139.76,139.76,0,0,1-12.65-7.88c-.45-.31-.91-.61-1.35-.93s-.71-.5-1.05-.76q-2-1.45-4-3c-.84-.64-1.66-1.32-2.48-2l-1.64-1.33a181.34,181.34,0,0,1-26.07-26.86c-27.67-34.93-44.32-80.45-40.82-120.19,2.47-28.14,14.67-49.45,34.33-60a61.53,61.53,0,0,1,29.43-7.15c11,0,22.65,2.55,34.62,7.6,2.45,1,4.92,2.18,7.39,3.42a139.61,139.61,0,0,0-14-6.19l-1.57-.57-.76-.27-1.86-.63c-1-.35-2-.68-3.07-1l-.08,0q-4.8-1.38-9.59-2.42C957.67,472.28,943.73,474.4,931.67,480.88Z"/><path class="cls-1" d="M1033.93,718.7a62.51,62.51,0,0,0,29.85-7.25c19.94-10.71,32.31-32.28,34.81-60.73,4.09-46.51-19.25-100.87-55.56-137.17a178.27,178.27,0,0,0-35.39-25.84,143,143,0,0,1,14.82,9.4q2.13,1.54,4.23,3.17c.82.64,1.64,1.31,2.46,2l1.65,1.34a181.34,181.34,0,0,1,26.07,26.86c27.67,34.93,44.32,80.45,40.82,120.19-2.47,28.14-14.67,49.45-34.33,60-18.16,9.75-40.65,9.48-64.27-.54-1.86-.79-3.72-1.63-5.59-2.54,4.11,2,8.26,3.83,12.45,5.4l1.58.57.75.27c.82.29,1.65.57,2.47.84l.35.12,1.83.58q4.64,1.42,9.15,2.41A77.9,77.9,0,0,0,1033.93,718.7Z"/><path class="cls-3" d="M990,705.8l-.3-.16Z"/><path class="cls-3" d="M993.46,707.55l-1.61-.81Z"/><path class="cls-3" d="M1005.17,486.38l.74.4Z"/><path class="cls-1" d="M888.29,558.86c4.85,50.43,38.09,103.59,80.64,134.78A173.83,173.83,0,0,0,1006,713c-4.19-1.57-8.34-3.38-12.45-5.4l0,0-1.61-.81L990,705.8l-.3-.16c-.63-.33-1.27-.68-1.9-1a178,178,0,0,1-35.39-25.84c-33.94-31.55-59-76.77-63.21-120-3.1-32.2,5.71-58.25,24.81-73.33,11-8.67,24.64-13.05,40-13.05a88.48,88.48,0,0,1,15.29,1.38,125,125,0,0,0-18.9-2.23c-14.06.64-26.64,5-36.92,13.17C894.09,500,885.15,526.33,888.29,558.86Z"/><path class="cls-3" d="M1008.28,713.81l-.75-.27Z"/><path class="cls-3" d="M982.24,476.89c1,.31,2,.64,3.07,1C984.29,477.54,983.27,477.2,982.24,476.89Z"/><path class="cls-3" d="M1011.1,714.77l-.35-.12Z"/><path class="cls-3" d="M987.17,478.51l.76.27Z"/><path class="cls-4" d="M1003.53,485.54l1.64.84.74.4c.58.3,1.16.62,1.73.93A178.27,178.27,0,0,1,1043,513.55c33.93,31.55,59,76.78,63.2,120,3.1,32.2-5.71,58.25-24.81,73.33-15.44,12.18-36.17,15.91-59.34,10.88q-4.51-1-9.15-2.41a126.41,126.41,0,0,0,18.66,4.35,105.35,105.35,0,0,0,12.75,1.12c14.35-.52,27.2-5,37.66-13.21,19.36-15.28,28.3-41.62,25.16-74.15-4.85-50.44-38.09-103.59-80.64-134.79a174.24,174.24,0,0,0-37-19.32A139.61,139.61,0,0,1,1003.53,485.54Z"/><path class="cls-3" d="M980,475.2l-.35-.08.85.22Z"/><path class="cls-4" d="M1099.44,700.32c17.79-20,22.48-51.72,12.85-87-14-51.58-55.19-100.3-101.56-125.34a177,177,0,0,0-28.57-11.08l.08,0c1,.31,2,.65,3.07,1l1.86.63.76.27,1.57.57a174.24,174.24,0,0,1,37,19.32c39.28,26.63,72.51,69.65,84.83,114.86,9.54,35,4.93,66.4-12.64,86.14-12.89,14.48-31.91,21.77-54.37,21.15a105.35,105.35,0,0,1-12.75-1.12,126.41,126.41,0,0,1-18.66-4.35l-1.83-.58-.35-.12c-.82-.27-1.65-.55-2.47-.84l-.75-.27L1006,713a173.83,173.83,0,0,1-37-19.33C929.65,667,896.42,624,884.1,578.79c-9.54-35-4.93-66.4,12.64-86.14,12.17-13.67,29.79-20.94,50.63-21.19-2.17,0-4.32,0-6.46.09a96.05,96.05,0,0,0-13.77,1.63A62.88,62.88,0,0,0,896,492c-17.79,20-22.48,51.72-12.85,87,14.9,54.71,60.28,106.21,110.06,129.63a154.4,154.4,0,0,0,42.83,11.81,126.48,126.48,0,0,0,28.44-.41C1078.48,717.1,1090.43,710.44,1099.44,700.32Z"/><path class="cls-4" d="M1115.77,689.3c15.47-25.24,14.63-61.11-2.29-98.41-25.1-55.35-79.59-100.94-133-115.55l-.85-.22a148.54,148.54,0,0,0-33-3.89,114,114,0,0,0-24.94,2.65l-1.06.25c-.65.16-1.3.31-1.94.48s-1,.26-1.45.39c-1.17.32-2.32.65-3.46,1l-.51.16c-.77.24-1.5.52-2.25.78a65.87,65.87,0,0,0-31.39,26.47c-15.47,25.24-14.63,61.11,2.29,98.42,23.77,52.41,73.88,96.07,124.48,113a163,163,0,0,0,29.6,5.69,154.4,154.4,0,0,1-42.83-11.81c-45.54-19.51-88.79-59.78-110.32-107.26-16.78-37-17.64-72.52-2.35-97.47,9.9-16.17,26.18-26.81,46.59-30.76a96.05,96.05,0,0,1,13.77-1.63c2.14-.1,4.29-.12,6.46-.09,1,0,2,0,3,.08a125,125,0,0,1,18.9,2.23c1.1.21,2.2.43,3.3.67q4.78,1,9.59,2.42a177,177,0,0,1,28.57,11.08c42.36,20.67,81.63,58.85,101.82,103.37,16.78,37,17.64,72.52,2.35,97.46-9.64,15.74-25.31,26.24-45,30.43,1.35-.25,2.69-.52,4-.82l1.61-.38,1.09-.27,1.5-.41c1.17-.32,2.34-.65,3.48-1l.5-.15c2.47-.79,4.85-1.69,7.17-2.65A65.11,65.11,0,0,0,1115.77,689.3Z"/><path class="cls-1" d="M865,518.92c-11.74,30.54-4.42,69.56,20.09,107.06,34.62,52.95,95.3,89.91,149.83,95.43,3,.17,6,.27,9,.27a132.35,132.35,0,0,0,30-3.3c-1.32.3-2.66.57-4,.82q-2.7.51-5.45.87a126.48,126.48,0,0,1-28.44.41,163,163,0,0,1-29.6-5.69C960.68,701.66,914.48,669,886,625.4c-24.32-37.21-31.61-75.88-20-106.1,7.8-20.29,23.31-34.8,45.05-42.36.75-.26,1.48-.54,2.25-.78a103.44,103.44,0,0,0-12.44,4.78l-1.39.64-.7.35c-1.17.58-2.33,1.19-3.48,1.81-.67.36-1.33.73-2,1.11s-1.23.72-1.85,1.08c-1.75,1.06-3.44,2.18-5.08,3.33A70.31,70.31,0,0,0,865,518.92Z"/><path class="cls-4" d="M1130.43,673.4c11.74-30.54,4.42-69.56-20.09-107.06-34.53-52.82-95-89.75-149.43-95.41q-4.75-.29-9.42-.29a132.66,132.66,0,0,0-29.75,3.24,114,114,0,0,1,24.94-2.65,148.54,148.54,0,0,1,33,3.89l.35.08c48.64,11.2,99.12,45.3,129.47,91.72,24.32,37.21,31.61,75.88,20,106.1-7.2,18.73-21,32.53-40.13,40.49-2.32,1-4.7,1.86-7.17,2.65a103.91,103.91,0,0,0,13.58-5.3l.83-.41,1.69-.85,1.37-.72a91.58,91.58,0,0,0,9.46-5.82A70.31,70.31,0,0,0,1130.43,673.4Z"/><path class="cls-3" d="M1076.65,717.73l-1.09.27Z"/><path class="cls-3" d="M1081.63,716.31c-1.14.36-2.31.69-3.48,1C1079.32,717,1080.48,716.67,1081.63,716.31Z"/><path class="cls-3" d="M913.83,476c1.14-.35,2.29-.68,3.46-1C916.13,475.32,915,475.65,913.83,476Z"/><path class="cls-3" d="M918.74,474.61c.64-.17,1.29-.32,1.94-.48C920,474.29,919.38,474.44,918.74,474.61Z"/><path class="cls-1" d="M853,539.73c-6.42,35.38,8.12,76,39.87,111.57,40.34,45.13,99.57,71.47,151.16,71.47a143.3,143.3,0,0,0,14.6-.73,129.33,129.33,0,0,0,37.11-11.18,103.91,103.91,0,0,1-13.58,5.3l-.5.15c-1.15.36-2.31.69-3.48,1l-1.5.41-1.09.27-1.61.38a132.35,132.35,0,0,1-30,3.3c-3,0-6-.1-9-.27-49-2.86-103.48-28.57-141.28-70.85-31.52-35.27-45.95-75.59-39.61-110.63a77.22,77.22,0,0,1,32.34-50.67c1.64-1.15,3.33-2.27,5.08-3.33A101.15,101.15,0,0,0,877.39,496c-.42.36-.84.72-1.25,1.09-1,.85-1.91,1.71-2.83,2.59l-.3.27c-1.76,1.71-3.42,3.48-5,5.29A79.13,79.13,0,0,0,853,539.73Z"/><path class="cls-3" d="M898.79,481.93l.7-.35Z"/><path class="cls-3" d="M893.32,484.85c.66-.38,1.32-.75,2-1.11C894.65,484.1,894,484.47,893.32,484.85Z"/><path class="cls-3" d="M1098.23,709.6l-1.69.85Z"/><path class="cls-4" d="M913.32,476.16l.51-.16c1.15-.35,2.3-.68,3.46-1,.48-.13,1-.27,1.45-.39s1.29-.32,1.94-.48l1.06-.25a132.66,132.66,0,0,1,29.75-3.24q4.66,0,9.42.29c48.93,3,103.18,28.66,140.88,70.83,31.52,35.27,46,75.59,39.6,110.63a77.17,77.17,0,0,1-32.33,50.67,91.58,91.58,0,0,1-9.46,5.82,103.23,103.23,0,0,0,16.06-10.55l1.13-.92.89-.75,1.64-1.43c1-.85,1.9-1.7,2.81-2.58l.31-.29c1.76-1.7,3.42-3.47,5-5.28a79.13,79.13,0,0,0,15-34.49c6.42-35.38-8.12-76.05-39.87-111.57-44.27-49.53-111.3-76.42-166-70.7a129.11,129.11,0,0,0-35.71,10.62A103.44,103.44,0,0,1,913.32,476.16Z"/><path class="cls-1" d="M844.84,566.1c.5,39,22.52,79.34,60.41,110.61,38.4,31.69,86.29,48.18,129.78,48.18a148.24,148.24,0,0,0,47.47-7.42,125.56,125.56,0,0,0,33.16-19.14,103.23,103.23,0,0,1-16.06,10.55l-1.37.72-1.69.85-.83.41A129.33,129.33,0,0,1,1058.6,722c-48.76,7.29-107.31-8.83-152.61-46.22-37.63-31.05-59.5-71.05-60-109.73-.3-23.4,7.28-44.2,22-60.85,1.59-1.81,3.25-3.58,5-5.29a109,109,0,0,0-10.64,11.77c-.91,1.19-1.81,2.4-2.68,3.63q-1.11,1.57-2.16,3.18c-.2.31-.42.61-.62.92-1.49,2.31-2.83,4.67-4.11,7.06A92.42,92.42,0,0,0,844.84,566.1Z"/><path class="cls-4" d="M1150.61,626.22c-.5-39-22.52-79.34-60.41-110.61-53.09-43.81-124.3-58.56-177-40.86A124.27,124.27,0,0,0,877.39,496a101.15,101.15,0,0,1,14.08-10.07c.62-.36,1.23-.73,1.85-1.08s1.33-.75,2-1.11c1.15-.62,2.31-1.23,3.48-1.81l.7-.35,1.39-.64a129.11,129.11,0,0,1,35.71-10.62,159.3,159.3,0,0,1,23.83-1.76c43.22,0,90.85,16.42,129,47.94,37.63,31,59.5,71,60,109.73.3,23.4-7.28,44.2-22,60.85-1.59,1.81-3.25,3.58-5,5.28A107.51,107.51,0,0,0,1133,680.74l.67-.89c.41-.54.82-1.08,1.21-1.63s.69-1,1-1.44a102.89,102.89,0,0,0,6.76-11A92.34,92.34,0,0,0,1150.61,626.22Z"/><path class="cls-3" d="M873.31,499.68c.92-.88,1.87-1.74,2.83-2.59C875.18,497.93,874.24,498.8,873.31,499.68Z"/><path class="cls-3" d="M1122.13,692.65c-.91.88-1.86,1.73-2.81,2.58C1120.27,694.39,1121.21,693.53,1122.13,692.65Z"/><path class="cls-3" d="M1117.68,696.66l-.89.75Z"/><path class="cls-1" d="M1153.13,594.38c-8.54-40.67-37.69-78.32-80-103.31-60.58-35.8-133.46-36.73-181.81-6.76a129.11,129.11,0,0,0-29,27.41A109,109,0,0,1,873,500l.3-.27c.93-.88,1.87-1.75,2.83-2.59.41-.37.83-.73,1.25-1.09a124.27,124.27,0,0,1,35.83-21.25,161.52,161.52,0,0,1,58.84-10.62c33.28,0,68.6,9.13,100.49,28,42,24.82,70.93,62.19,79.41,102.53,5.35,25.5,2.11,49.84-9.31,71.17a102.89,102.89,0,0,1-6.76,11,119.5,119.5,0,0,0,10.94-18.91c.28-.62.55-1.23.82-1.85.13-.28.25-.56.37-.84q.59-1.35,1.14-2.73l.09-.2c.22-.56.43-1.13.65-1.69q1.75-4.59,3.1-9.27A109.54,109.54,0,0,0,1153.13,594.38Z"/><path class="cls-3" d="M857.53,518.53q1.05-1.6,2.16-3.18C859,516.39,858.24,517.46,857.53,518.53Z"/><path class="cls-3" d="M1134.85,678.22c-.39.55-.8,1.09-1.21,1.63C1134.05,679.31,1134.46,678.77,1134.85,678.22Z"/><path class="cls-2" d="M1122.44,692.36l-.31.29c-.92.88-1.86,1.74-2.81,2.58l-1.64,1.43-.89.75-1.13.92a125.56,125.56,0,0,1-33.16,19.14,161.64,161.64,0,0,1-59.11,10.72c-33.28,0-68.6-9.13-100.49-28C880.91,675.4,852,638,843.49,597.69c-5.35-25.51-2.11-49.84,9.31-71.18,1.28-2.39,2.62-4.75,4.11-7.06a118.83,118.83,0,0,0-9.57,17.9c-.36.83-.71,1.67-1.05,2.51l-.09.22c-.22.55-.43,1.12-.65,1.68q-1.75,4.59-3.11,9.28a109.66,109.66,0,0,0-.12,46.9c8.54,40.67,37.69,78.32,80,103.31,32.07,19,67.58,28.13,101.08,28.13,29.89,0,58.17-7.32,81-21.53A129.17,129.17,0,0,0,1133,680.74,107.51,107.51,0,0,1,1122.44,692.36Z"/><path class="cls-1" d="M1148.34,558.05c-16.84-39.74-52-72.41-96.6-89.63C985.39,442.76,913.63,456.91,871.89,499a140.39,140.39,0,0,0-24.55,38.4,118.83,118.83,0,0,1,9.57-17.9c.2-.31.42-.61.62-.92.71-1.07,1.42-2.14,2.16-3.18.87-1.23,1.77-2.44,2.68-3.63a129.11,129.11,0,0,1,29-27.41c25.6-17.75,58-27.48,92.3-27.48a187.64,187.64,0,0,1,67.64,12.76c44.24,17.1,79.19,49.52,95.9,88.95,11.54,27.24,13.49,56.14,5.81,82.75q-1.35,4.68-3.1,9.27a137.09,137.09,0,0,0,5.83-19c.2-.88.4-1.76.58-2.65,0-.08,0-.15,0-.23.24-1.18.46-2.36.68-3.55,0-.2.07-.39.11-.59.14-.8.27-1.61.4-2.42q.85-5.51,1.27-11A129,129,0,0,0,1148.34,558.05Z"/><path class="cls-2" d="M847.11,634.27c16.84,39.74,52,72.41,96.6,89.63a188.72,188.72,0,0,0,68.07,12.84c43.54,0,84.2-15.6,111.77-43.36a140.63,140.63,0,0,0,23.28-35.51,119.5,119.5,0,0,1-10.94,18.91c-.35.48-.69,1-1,1.44s-.8,1.09-1.21,1.63l-.67.89a129.17,129.17,0,0,1-28.62,27.11c-42.23,29.41-103.22,36.91-160.19,14.89-44.24-17.11-79.19-49.53-95.9-89-11.54-27.24-13.49-56.13-5.82-82.74q1.37-4.69,3.11-9.28a137.24,137.24,0,0,0-5.84,19.07c-.19.85-.38,1.71-.56,2.57l-.06.3c-.25,1.19-.47,2.38-.69,3.58,0,.15-.06.3-.08.46-.15.84-.29,1.69-.43,2.54q-.84,5.37-1.26,10.76A129,129,0,0,0,847.11,634.27Z"/><path class="cls-3" d="M846.2,540.08l.09-.22Z"/><path class="cls-3" d="M1148,655.18c-.12.28-.24.56-.37.84C1147.78,655.74,1147.9,655.46,1148,655.18Z"/><path class="cls-3" d="M1149.25,652.25l-.09.2Z"/><path class="cls-2" d="M969.06,743.64a176.83,176.83,0,0,0,33.77,3.27c57.09,0,108.92-28.07,136.63-72.55a160.77,160.77,0,0,0,16.27-42.83,137.09,137.09,0,0,1-5.83,19c-.22.56-.43,1.13-.65,1.69l-.09.2q-.56,1.38-1.14,2.73c-.12.28-.24.56-.37.84-.27.62-.54,1.23-.82,1.85a140.63,140.63,0,0,1-23.28,35.51c-29.11,32.53-73.06,52.22-120.72,52.22a175,175,0,0,1-33.52-3.25c-42.47-8.25-79.44-31.23-104.1-64.69C843.88,648.72,834,614.92,836.63,581q.42-5.38,1.26-10.76a162.7,162.7,0,0,0-.82,46,148.6,148.6,0,0,0,27.09,62.16C889,712.16,926.27,735.32,969.06,743.64Z"/><path class="cls-3" d="M1156.36,628.65c0,.08,0,.15,0,.23C1156.33,628.8,1156.34,628.73,1156.36,628.65Z"/><path class="cls-3" d="M838.32,567.74c0-.16,0-.31.08-.46C838.37,567.43,838.34,567.58,838.32,567.74Z"/><path class="cls-3" d="M839.09,563.7l.06-.3Z"/><path class="cls-3" d="M1157.15,624.51c0,.2-.08.39-.11.59C1157.07,624.9,1157.11,624.71,1157.15,624.51Z"/><path class="cls-1" d="M845.55,541.76c.22-.56.43-1.13.65-1.68l.09-.22c.34-.84.69-1.68,1.05-2.51A140.39,140.39,0,0,1,871.89,499C901,466.42,945,446.72,992.62,446.72a175.84,175.84,0,0,1,33.52,3.25c81.86,15.91,138.33,86.25,132.68,161.13q-.4,5.49-1.27,11a162.45,162.45,0,0,0,1-44.7c-10.54-61.95-62.13-115.1-132.15-128.71C956.59,435.12,889.06,464.84,856,518a160.83,160.83,0,0,0-16.26,42.83A137.24,137.24,0,0,1,845.55,541.76Z"/><path class="cls-1" d="M997.73,432.89c-90,0-163.28,73.24-163.28,163.27S907.7,759.43,997.73,759.43,1161,686.19,1161,596.16,1087.75,432.89,997.73,432.89Zm0,325.18c-82.47,0-150.72-62-160.66-141.79a162.7,162.7,0,0,1,.82-46c.14-.85.28-1.7.43-2.54,0-.16,0-.31.08-.46.22-1.2.44-2.39.69-3.58l.06-.3c.18-.86.37-1.72.56-2.57a162.13,162.13,0,0,1,158-126.58c82.92,0,151.47,62.67,160.81,143.14a162.45,162.45,0,0,1-1,44.7c-.13.81-.26,1.62-.4,2.42,0,.2-.08.39-.11.59-.22,1.19-.44,2.37-.68,3.55,0,.08,0,.15,0,.23-.18.89-.38,1.77-.58,2.65a162.12,162.12,0,0,1-158,126.54Z"/><path class="cls-1" d="M1003.7,622.74a15.56,15.56,0,0,0,7.08-29.42l-7.08-61.14-6.78,61a15.52,15.52,0,0,0-7.34,20.51l-31.35,30.86L996.54,621A15.41,15.41,0,0,0,1003.7,622.74Z"/><path class="cls-2" d="M939.25,661c.51.55,1,1.11,1.56,1.65a82.78,82.78,0,0,0,6.92,6.44c.37.31.75.59,1.13.88.75.6,1.49,1.21,2.27,1.78a79.37,79.37,0,0,0,8.74,5.66,76.94,76.94,0,0,0,7.57,3.73q2.85,1.22,5.77,2.2c1,.32,2,.63,2.94.91a75.8,75.8,0,0,0,21.24,3,77.11,77.11,0,0,0,12-.94c1.39-.22,2.76-.48,4.12-.77a77.37,77.37,0,0,0,19.22-6.85,81.65,81.65,0,0,0,22.38-17,85.12,85.12,0,0,0,7.65-9.45c1.07-1.53,2.08-3.12,3.06-4.73.44-.72.88-1.43,1.3-2.16.67-1.19,1.32-2.39,2-3.61,1.24-2.44,2.38-4.95,3.4-7.51s1.93-5.19,2.72-7.86c.28-.92.52-1.86.76-2.8.46-1.77.89-3.55,1.25-5.35q.81-4.14,1.25-8.4c0-.07,0-.14,0-.22a91.81,91.81,0,0,0,.33-13.5c-.12,2.37-.34,4.71-.64,7a90.56,90.56,0,0,1-1.92,16.21q-.54,2.49-1.2,4.94c-.15.53-.28,1.07-.44,1.59l-.12.43a88.23,88.23,0,0,1-17.19,31.9c-1.74,2-3.56,4-5.47,5.86-1,.93-1.94,1.84-2.93,2.72a78.09,78.09,0,0,1-39.61,18.81,75.48,75.48,0,0,1-30.19-1.32,74.41,74.41,0,0,1-7.24-2.2,78.57,78.57,0,0,1-20.31-10.93c-.66-.49-1.3-1-1.94-1.52-.47-.38-1-.73-1.42-1.12-1.1-.9-2.17-1.84-3.22-2.79-2-1.83-3.89-3.76-5.69-5.77l-.25-.27c-.8-.9-1.57-1.82-2.32-2.75l-.74-.91-.21-.28a83.32,83.32,0,0,1-5.64-8.16q-.84-1.36-1.62-2.76l-.66-1.21c-.24-.46-.5-.9-.74-1.36s-.35-.74-.53-1.1h0c-.52-1.06-1-2.13-1.52-3.21a88.47,88.47,0,0,1-4.25-11.66c-.15-.51-.27-1-.4-1.55l-.36-1.37c-.44-1.77-.85-3.56-1.19-5.37-.29-1.54-.55-3.09-.76-4.65a92,92,0,0,1-.79-9.72c-.3-2.42-.52-4.82-.63-7.21-.07,1.28-.11,2.57-.12,3.86,0,2.94.1,5.89.36,8.87q.2,2.15.48,4.29c0,.27.09.54.13.81.21,1.41.44,2.82.71,4.21s.5,2.52.79,3.76.64,2.57,1,3.84c.7,2.51,1.52,5,2.43,7.38.68,1.79,1.38,3.55,2.17,5.28a85.85,85.85,0,0,0,8.56,14.8c1.45,2,3,3.92,4.61,5.79C938.26,659.88,938.75,660.44,939.25,661Z"/><path class="cls-2" d="M1074,570.89q-.7-2.07-1.5-4.08a86.78,86.78,0,0,0-7.85-15.26,83.66,83.66,0,0,0-20.37-21.73,79.13,79.13,0,0,0-9.93-6.32,75.36,75.36,0,0,0-7-3.32,76.15,76.15,0,0,0-18.36-5.09H1009c-1.1-.16-2.21-.29-3.32-.4l-.65-.07c-.86-.08-1.73-.13-2.59-.18l-.55,0c-1.19-.06-2.38-.09-3.57-.1h-.95a76.86,76.86,0,0,0-11.29.93c-36.63,5.78-64,36.9-68.77,74.16-.07,2.33-.06,4.67.06,7,.15-3,.43-5.92.87-8.83A89.86,89.86,0,0,1,931,553.06a87.14,87.14,0,0,1,7.16-9.74,81.56,81.56,0,0,1,21.34-17.92,76.86,76.86,0,0,1,26.66-9.47,75.53,75.53,0,0,1,41.57,5.14,78.93,78.93,0,0,1,16.17,9.31c1.14.85,2.27,1.73,3.36,2.64s2.17,1.84,3.22,2.79a83.55,83.55,0,0,1,15.83,19.74,89,89,0,0,1,11.06,32.65c.37,2.67.59,5.32.72,7.95q.18-3.58.07-7.22c0-.27-.06-.55-.09-.82A92.71,92.71,0,0,0,1074,570.89Z"/><path class="cls-2" d="M1056.84,532.27c-.39-.43-.79-.84-1.18-1.27a84.19,84.19,0,0,0-6.67-6.41c-1.51-1.3-3-2.57-4.67-3.77s-3.6-2.54-5.45-3.7a78.16,78.16,0,0,0-19.48-8.76,76.26,76.26,0,0,0-33.33-2.12,78.17,78.17,0,0,0-33.68,14,85.39,85.39,0,0,0-24.22,27.29,90.33,90.33,0,0,0-9.74,26.06c-.11.52-.21,1-.31,1.55s-.2,1.19-.3,1.78c-.16.93-.3,1.86-.43,2.8-.09.63-.17,1.26-.24,1.9l-.09.7a92.43,92.43,0,0,0-.4,14.15c.11,2.39.33,4.79.63,7.21,0,.27.06.54.09.82,3.25,23.82,15.24,44.52,33.76,58.29a78.92,78.92,0,0,0,20,10.84q2.37.87,4.79,1.59a75.94,75.94,0,0,0,21.47,3.1,77.12,77.12,0,0,0,12-.95,74.86,74.86,0,0,0,7.38-1.55c32.88-8.53,57-37.9,61.39-72.61.3-2.32.52-4.66.64-7a90.91,90.91,0,0,0-.32-13.38c-.11-1.22-.24-2.43-.4-3.65-.07-.49-.17-1-.24-1.47-.22-1.44-.47-2.86-.75-4.27q-.79-4-1.9-7.8c-.74-2.51-1.57-5-2.51-7.37a85.39,85.39,0,0,0-13.93-23.68c-.61-.74-1.22-1.48-1.86-2.2Zm18.3,35.78c.48,1.84.91,3.69,1.29,5.58s.7,3.7,1,5.58a91.79,91.79,0,0,1,.79,9.72q.11,3.63-.07,7.22c-2,40-30.25,74.4-68.82,80.49a76.26,76.26,0,0,1-57.74-14.45c-18.36-13.66-30.25-34.2-33.47-57.83-.37-2.66-.59-5.31-.72-8-.12-2.35-.13-4.69-.06-7a91,91,0,0,1,2.17-17.32c.12-.51.22-1,.34-1.53,0-.09.05-.19.07-.28,8-32.31,33.39-58.14,66.3-63.33a77,77,0,0,1,11.89-.93,75.46,75.46,0,0,1,20.4,2.82,78.16,78.16,0,0,1,25.45,12.56c1.36,1,2.67,2.08,4,3.16a83,83,0,0,1,10.77,10.93c.39.48.77,1,1.15,1.45.17.21.32.42.49.64l.24.31a86.18,86.18,0,0,1,14.33,29.07C1075,567.31,1075,567.68,1075.14,568.05Z"/></svg>